<svg xmlns="http://www.w3.org/2000/svg" width="31.7mm" height="31.7mm" viewBox="0 0 3170 3170">
    <rect width="3170" height="3170" fill="black"/>

    <rect width="300" height="300" id="r1c1" x="35" y="35" fill="grey"/>
    <rect width="300" height="300" id="r1c2" x="435" y="35" fill="grey"/>
    <rect width="300" height="300" id="r1c3" x="835" y="35" fill="grey"/>
    <rect width="300" height="300" id="r1c4" x="1235" y="35" fill="grey"/>
    <rect width="300" height="300" id="r1c5" x="1635" y="35" fill="grey"/>
    <rect width="300" height="300" id="r1c6" x="2035" y="35" fill="grey"/>
    <rect width="300" height="300" id="r1c7" x="2435" y="35" fill="grey"/>
    <rect width="300" height="300" id="r1c8" x="2835" y="35" fill="grey"/>

    <rect width="300" height="300" id="r2c1" x="35" y="435" fill="grey"/>
    <rect width="300" height="300" id="r2c2" x="435" y="435" fill="grey"/>
    <rect width="300" height="300" id="r2c3" x="835" y="435" fill="grey"/>
    <rect width="300" height="300" id="r2c4" x="1235" y="435" fill="grey"/>
    <rect width="300" height="300" id="r2c5" x="1635" y="435" fill="grey"/>
    <rect width="300" height="300" id="r2c6" x="2035" y="435" fill="grey"/>
    <rect width="300" height="300" id="r2c7" x="2435" y="435" fill="grey"/>
    <rect width="300" height="300" id="r2c8" x="2835" y="435" fill="grey"/>

    <rect width="300" height="300" id="r3c1" x="35" y="835" fill="grey"/>
    <rect width="300" height="300" id="r3c2" x="435" y="835" fill="grey"/>
    <rect width="300" height="300" id="r3c3" x="835" y="835" fill="grey"/>
    <rect width="300" height="300" id="r3c4" x="1235" y="835" fill="grey"/>
    <rect width="300" height="300" id="r3c5" x="1635" y="835" fill="grey"/>
    <rect width="300" height="300" id="r3c6" x="2035" y="835" fill="grey"/>
    <rect width="300" height="300" id="r3c7" x="2435" y="835" fill="grey"/>
    <rect width="300" height="300" id="r3c8" x="2835" y="835" fill="grey"/>
    
    <rect width="300" height="300" id="r4c1" x="35" y="1235" fill="grey"/>
    <rect width="300" height="300" id="r4c2" x="435" y="1235" fill="grey"/>
    <rect width="300" height="300" id="r4c3" x="835" y="1235" fill="grey"/>
    <rect width="300" height="300" id="r4c4" x="1235" y="1235" fill="grey"/>
    <rect width="300" height="300" id="r4c5" x="1635" y="1235" fill="grey"/>
    <rect width="300" height="300" id="r4c6" x="2035" y="1235" fill="grey"/>
    <rect width="300" height="300" id="r4c7" x="2435" y="1235" fill="grey"/>
    <rect width="300" height="300" id="r4c8" x="2835" y="1235" fill="grey"/>

    <rect width="300" height="300" id="r5c1" x="35" y="1635" fill="grey"/>
    <rect width="300" height="300" id="r5c2" x="435" y="1635" fill="grey"/>
    <rect width="300" height="300" id="r5c3" x="835" y="1635" fill="grey"/>
    <rect width="300" height="300" id="r5c4" x="1235" y="1635" fill="grey"/>
    <rect width="300" height="300" id="r5c5" x="1635" y="1635" fill="grey"/>
    <rect width="300" height="300" id="r5c6" x="2035" y="1635" fill="grey"/>
    <rect width="300" height="300" id="r5c7" x="2435" y="1635" fill="grey"/>
    <rect width="300" height="300" id="r5c8" x="2835" y="1635" fill="grey"/>

    <rect width="300" height="300" id="r6c1" x="35" y="2035" fill="grey"/>
    <rect width="300" height="300" id="r6c2" x="435" y="2035" fill="grey"/>
    <rect width="300" height="300" id="r6c3" x="835" y="2035" fill="grey"/>
    <rect width="300" height="300" id="r6c4" x="1235" y="2035" fill="grey"/>
    <rect width="300" height="300" id="r6c5" x="1635" y="2035" fill="grey"/>
    <rect width="300" height="300" id="r6c6" x="2035" y="2035" fill="grey"/>
    <rect width="300" height="300" id="r6c7" x="2435" y="2035" fill="grey"/>
    <rect width="300" height="300" id="r6c8" x="2835" y="2035" fill="grey"/>

    <rect width="300" height="300" id="r7c1" x="35" y="2435" fill="grey"/>
    <rect width="300" height="300" id="r7c2" x="435" y="2435" fill="grey"/>
    <rect width="300" height="300" id="r7c3" x="835" y="2435" fill="grey"/>
    <rect width="300" height="300" id="r7c4" x="1235" y="2435" fill="grey"/>
    <rect width="300" height="300" id="r7c5" x="1635" y="2435" fill="grey"/>
    <rect width="300" height="300" id="r7c6" x="2035" y="2435" fill="grey"/>
    <rect width="300" height="300" id="r7c7" x="2435" y="2435" fill="grey"/>
    <rect width="300" height="300" id="r7c8" x="2835" y="2435" fill="grey"/>

    <rect width="300" height="300" id="r8c1" x="35" y="2835" fill="grey"/>
    <rect width="300" height="300" id="r8c2" x="435" y="2835" fill="grey"/>
    <rect width="300" height="300" id="r8c3" x="835" y="2835" fill="grey"/>
    <rect width="300" height="300" id="r8c4" x="1235" y="2835" fill="grey"/>
    <rect width="300" height="300" id="r8c5" x="1635" y="2835" fill="grey"/>
    <rect width="300" height="300" id="r8c6" x="2035" y="2835" fill="grey"/>
    <rect width="300" height="300" id="r8c7" x="2435" y="2835" fill="grey"/>
    <rect width="300" height="300" id="r8c8" x="2835" y="2835" fill="grey"/>

    <script>
    // <![CDATA[
        document.addEventListener('click', e => {
            const currentColor = e.target.getAttribute('fill')
            if (currentColor == 'grey') {
                e.target.setAttribute('fill', 'red')
            } else if (currentColor == 'red') {
                e.target.setAttribute('fill', 'lime')
            } else if (currentColor == 'lime') {
                e.target.setAttribute('fill', 'orange')
            } else if (currentColor == 'orange') {
                e.target.setAttribute('fill', 'grey')
            }
        })
    // ]]>
    </script>
</svg>